<?xml version="1.0" ?><svg height="48" viewBox="0 0 48 48" width="48" xmlns="http://www.w3.org/2000/svg"><defs><style>.cls-1{fill:#49aaee;}.cls-2{fill:#3398d6;}</style></defs><title/><g data-name="26-Codewall" id="_26-Codewall"><g data-name="&lt;Group&gt;" id="_Group_"><circle class="cls-1" cx="40" cy="40" r="6"/><circle class="cls-1" cx="24" cy="24" r="6"/><circle class="cls-1" cx="40" cy="24" r="6"/><circle class="cls-1" cx="40" cy="8" r="6"/><circle class="cls-1" cx="24" cy="8" r="6"/><circle class="cls-1" cx="8" cy="8" r="6"/><path class="cls-2" d="M40,15a7,7,0,1,1,7-7A7.008,7.008,0,0,1,40,15ZM40,3a5,5,0,1,0,5,5A5.006,5.006,0,0,0,40,3Z"/><path class="cls-2" d="M24,15a7,7,0,1,1,7-7A7.008,7.008,0,0,1,24,15ZM24,3a5,5,0,1,0,5,5A5.006,5.006,0,0,0,24,3Z"/><path class="cls-2" d="M8,15a7,7,0,1,1,7-7A7.008,7.008,0,0,1,8,15ZM8,3a5,5,0,1,0,5,5A5.006,5.006,0,0,0,8,3Z"/><path class="cls-2" d="M40,31a7,7,0,1,1,7-7A7.009,7.009,0,0,1,40,31Zm0-12a5,5,0,1,0,5,5A5.006,5.006,0,0,0,40,19Z"/><path class="cls-2" d="M40,47a7,7,0,1,1,7-7A7.009,7.009,0,0,1,40,47Zm0-12a5,5,0,1,0,5,5A5.006,5.006,0,0,0,40,35Z"/><path class="cls-2" d="M24,31a7,7,0,1,1,7-7A7.009,7.009,0,0,1,24,31Zm0-12a5,5,0,1,0,5,5A5.006,5.006,0,0,0,24,19Z"/></g></g></svg>